<svg width="96" height="96" xmlns="http://www.w3.org/2000/svg"><g fill="none" fill-rule="evenodd"><circle fill="#0439d7" cx="48" cy="48" r="48"/><g fill="#FFF" fill-rule="nonzero"><path d="M47.6 73.253c-6.543 0-11.866-5.323-11.866-11.866V47.705c0-6.543 5.323-11.866 11.866-11.866 6.543 0 11.866 5.323 11.866 11.866v13.681c0 6.543-5.323 11.867-11.866 11.867zm0-34.414c-4.889 0-8.866 3.977-8.866 8.866v13.681c0 4.89 3.977 8.866 8.866 8.866 4.889 0 8.866-3.977 8.866-8.865V47.704c0-4.888-3.977-8.866-8.866-8.866z"/><path d="M47.6 73.253c-6.543 0-11.866-5.323-11.866-11.866V47.705c0-6.543 5.323-11.866 11.866-11.866 6.543 0 11.866 5.323 11.866 11.866v13.681c0 6.543-5.323 11.867-11.866 11.867zm0-34.414c-4.889 0-8.866 3.977-8.866 8.866v13.681c0 4.89 3.977 8.866 8.866 8.866 4.889 0 8.866-3.977 8.866-8.865V47.704c0-4.888-3.977-8.866-8.866-8.866z"/><path d="M46.1 44.402h3v4.003h-3zM22 46.205h7.028v3H22zM66.277 46.205h7.028v3h-7.028zM24.687 59.232l6.086-3.514 1.5 2.598-6.086 3.514zM63.031 37.094l6.086-3.514 1.5 2.598-6.086 3.514zM55.666 30.826l3.514-6.086 2.598 1.5-3.514 6.086zM46.153 22.053h3v7.027h-3zM33.527 26.24l2.598-1.5 3.514 6.085-2.598 1.5zM63.031 58.317l1.5-2.598 6.086 3.514-1.5 2.598zM24.687 36.178l1.5-2.598 6.086 3.514-1.5 2.598z"/></g></g></svg>