<svg width="96" height="96" xmlns="http://www.w3.org/2000/svg"><g fill="none" fill-rule="evenodd"><circle fill="#0439d7" cx="48" cy="48" r="48"/><g fill="#FFF" fill-rule="nonzero"><path d="M69.53 25.048H25.67A3.679 3.679 0 0022 28.727v38.781a3.041 3.041 0 003.032 3.044h45.136a3.041 3.041 0 003.032-3.044V28.726a3.679 3.679 0 00-3.67-3.678zM24 28.727c0-.926.75-1.679 1.67-1.679h43.86c.92 0 1.67.753 1.67 1.679v5.943H24v-5.943zm47.2 38.781c0 .576-.463 1.044-1.032 1.044H25.032A1.039 1.039 0 0124 67.508V36.67h47.2v30.838z"/><path d="M54.897 29.859h-1.343a1 1 0 000 2h1.343a1 1 0 000-2zM61.11 29.859h-1.343a1 1 0 000 2h1.343a1 1 0 000-2zM67.324 29.859H65.98a1 1 0 000 2h1.344a1 1 0 000-2zM38.822 29.859h-9.695a1 1 0 000 2h9.695a1 1 0 000-2z"/><g><path d="M51.599 52.62a5.128 5.128 0 001.153-3.244 5.158 5.158 0 00-5.152-5.152 5.158 5.158 0 00-5.152 5.152c0 1.228.432 2.358 1.152 3.244a4.508 4.508 0 00-2.36 3.95v3.428a1 1 0 001 1h10.72a1 1 0 001-1V56.57a4.514 4.514 0 00-2.361-3.95zM47.6 46.225a3.156 3.156 0 013.152 3.152 3.156 3.156 0 01-3.152 3.152 3.156 3.156 0 01-3.152-3.152 3.156 3.156 0 013.152-3.152zm4.36 12.774h-8.72V56.57c0-1.29 1-2.374 2.28-2.481.636.282 1.34.439 2.08.439s1.444-.157 2.08-.44a2.5 2.5 0 012.28 2.482v2.428z"/></g></g></g></svg>