<svg width="96" height="96" xmlns="http://www.w3.org/2000/svg"><g fill="none" fill-rule="evenodd"><circle fill="#0439d7" cx="48" cy="48" r="48"/><g fill="#FFF" fill-rule="nonzero"><path d="M75.517 52.147a1.21 1.21 0 00-1.417.96c-2.405 12.482-13.392 21.542-26.124 21.542-12.464 0-23.255-8.682-25.96-20.758l.315.316a1.206 1.206 0 001.711 0 1.21 1.21 0 000-1.712l-2.488-2.488a1.21 1.21 0 00-1.711 0l-2.489 2.488a1.21 1.21 0 101.712 1.712l.448-.448c2.7 13.518 14.638 23.31 28.462 23.31 13.89 0 25.876-9.885 28.5-23.505a1.21 1.21 0 00-.959-1.417zM78.597 41.873a1.21 1.21 0 00-1.71 0l-.449.448c-2.7-13.518-14.638-23.31-28.462-23.31-13.89 0-25.876 9.885-28.5 23.505a1.21 1.21 0 102.376.458C24.257 30.49 35.244 21.43 47.976 21.43c12.464 0 23.255 8.682 25.96 20.758l-.315-.316a1.21 1.21 0 00-1.711 1.712l2.488 2.488a1.21 1.21 0 001.711 0l2.488-2.488a1.21 1.21 0 000-1.712z"/><path d="M49.253 53.374a1.21 1.21 0 001.571-.677l3.349-8.42a1.21 1.21 0 00-2.249-.894l-3.348 8.42a1.21 1.21 0 00.677 1.57zM56.09 45.04h2.779l-2.955 6.723a1.21 1.21 0 002.215.974l3.701-8.42a1.21 1.21 0 00-1.107-1.696H56.09a1.21 1.21 0 000 2.42zM40.602 50.38a1.21 1.21 0 001.042.595h2.992l-.01 1.264a1.21 1.21 0 001.2 1.22h.01a1.21 1.21 0 001.21-1.199l.01-1.292a1.21 1.21 0 00.016-2.405c.011-1.97.015-3.953-.01-4.25-.064-.778-.54-1.414-1.21-1.622-.67-.207-1.374.043-1.885.669-.479.587-2.525 4.266-3.382 5.82-.207.375-.2.831.017 1.2zm4.058-3.515l-.008 1.69h-.95c.336-.6.663-1.177.958-1.69z"/><path d="M39.87 53.523a1.21 1.21 0 00-.015-2.42h-.015c-.663.008-1.359.014-1.988.017.436-.59.995-1.362 1.7-2.37.558-.796.922-1.553 1.083-2.249.04-.154.073-.372.073-.599a3.366 3.366 0 00-3.364-3.364 3.37 3.37 0 00-3.302 2.714 1.21 1.21 0 002.375.466.945.945 0 011.869.123l-.021.166c-.072.276-.253.723-.695 1.355-1.33 1.901-2.124 2.94-2.55 3.499-.548.716-.849 1.11-.648 1.765.119.385.421.692.81.821.161.054.29.097 1.943.097.65 0 1.533-.006 2.745-.021z"/></g></g></svg>